<svg viewBox="0 0 187 56" fill="none" preserveAspectRatio="none" xmlns="http://www.w3.org/2000/svg">
<path d="M4.44141 11.1837L12.1485 3.47656H183.441V44.7695L175.734 52.4766H4.44141V11.1837Z" fill="#646669" stroke="#F50A64"/>
<path d="M4.44141 11.1837L12.1485 3.47656H183.441V44.7695L175.734 52.4766H4.44141V11.1837Z" fill="#F50A64" stroke="#F50A64"/>
<mask id="path-3-inside-1_3862_94973" fill="white">
<path fill-rule="evenodd" clip-rule="evenodd" d="M9.75 0H186.914V46.9688L182.41 51.4727L177.906 55.9766H0.742188V9.00781L9.75 0Z"/>
</mask>
<path d="M186.914 0H187.914V-1H186.914V0ZM9.75 0V-1H9.33579L9.04289 -0.707107L9.75 0ZM186.914 46.9688L187.621 47.6759L187.914 47.383V46.9688H186.914ZM177.906 55.9766V56.9766H178.32L178.613 56.6837L177.906 55.9766ZM0.742188 55.9766H-0.257812V56.9766H0.742188V55.9766ZM0.742188 9.00781L0.0350808 8.3007L-0.257812 8.5936V9.00781H0.742188ZM186.914 -1H9.75V1H186.914V-1ZM187.914 46.9688V0H185.914V46.9688H187.914ZM183.117 52.1798L187.621 47.6759L186.207 46.2616L181.703 50.7655L183.117 52.1798ZM178.613 56.6837L183.117 52.1798L181.703 50.7655L177.199 55.2695L178.613 56.6837ZM0.742188 56.9766H177.906V54.9766H0.742188V56.9766ZM-0.257812 9.00781V55.9766H1.74219V9.00781H-0.257812ZM9.04289 -0.707107L0.0350808 8.3007L1.44929 9.71492L10.4571 0.707107L9.04289 -0.707107Z" fill="#F50A64" mask="url(#path-3-inside-1_3862_94973)"/>
</svg>
