<?xml version="1.0" encoding="UTF-8"?>
<svg id="Layer_1" data-name="Layer 1" xmlns="http://www.w3.org/2000/svg" xmlns:xlink="http://www.w3.org/1999/xlink" viewBox="0 0 1024 1024">
  <defs>
    <style>
      .cls-1 {
        fill: url(#linear-gradient);
      }

      .cls-1, .cls-2 {
        stroke-width: 0px;
      }

      .cls-2 {
        fill: #fff;
      }
    </style>
    <linearGradient id="linear-gradient" x1="179.68" y1="-63.6" x2="844.32" y2="1087.6" gradientUnits="userSpaceOnUse">
      <stop offset="0" stop-color="#68c9cf"/>
      <stop offset="1" stop-color="#99509f"/>
    </linearGradient>
  </defs>
  <rect class="cls-1" width="1024" height="1024" rx="95" ry="95"/>
  <path class="cls-2" d="M120.31,402.12c3.35-3.65,6.57-1.17,9.57-.24,37.99,11.73,75.93,23.64,113.94,35.33,12.97,3.99,26.1,7.01,39.75,2.97,5.65-1.68,10.59-4.38,14.44-8.86,6.85-8,6.84-15.67-.35-23.44-12.16-13.15-24.81-25.76-39.64-36-55.29-38.23-106.29-82.03-159.62-122.82-5.24-4-11.6-6.85-15.03-11.87-.4-6.03,3.81-7.89,6.58-10.6,7.16-7,8.05-14.58,2.19-22.63-3.76-5.17-7.97-10.01-12.05-14.94-2.59-3.12-5.67-6-3.72-10.94,3.91-2.92,8.23-1.15,12.42-.54,54.37,8.02,108.46,17.48,162.38,28.16,25.28,5.01,49.74.6,71.57-14.29,24.95-17.02,27.26-36.94,5.14-57.48-22.24-20.66-45.75-39.95-68.66-59.9-2.88-2.51-7.11-4.3-6.3-10.23,15.24-2.44,29.95,1.89,44.64,4.29,107.56,17.55,213.55,42.27,318.56,71.25,2.92.81,5.84,1.65,8.8,2.32,18.48,4.15,24.83-.12,27.73-18.74.47-3.04.46-6.12,3.78-7.96,3.5-.73,6.26,1.46,9.15,3.08,65.03,36.39,130.05,72.8,195.07,109.23,4.85,2.72,9.6,5.19,15.03,1.38,5.04-3.53,4.23-8.63,4.03-13.74-.2-5.17-3.75-10.25-.82-15.4,3.52-1.49,5.29.74,7.29,2.54,35.3,31.92,55.23,70.51,58.96,119,5.4,70.25,2.52,140.29.47,210.44-.52,17.88-1.73,35.81-.98,53.64,2.78,66.45-7.91,131.03-24.92,194.93-7.09,26.64-15.76,52.85-18.48,80.69-1.89,19.32-14.34,33.87-29.49,45.57-45.42,35.08-96.02,54.74-154.26,54.59-179.9-.47-359.8-.2-539.7-.26-3.31,0-6.76.73-10.24-1.3-2.86-6.9,2.89-7.51,7.08-8.8,31.23-9.65,62.5-19.15,93.73-28.78,4.82-1.49,9.6-3.21,14.23-5.2,25.6-10.99,29.06-40.43,6.56-57.39-12.85-9.69-28.28-12.39-43.79-13.95-27.25-2.75-54.63-1.46-81.95-2.01-5.56-.11-11.25.28-11.27-7.36.88-3.74,3.51-5.39,6.08-6.96,27.13-16.64,51.78-36.6,76.14-56.92,38.35-31.99,52.44-87.43,34.2-134.15-16.7-42.76-41.3-81.02-67.79-118.16-25.08-35.16-50.36-70.17-75.44-105.33-2.6-3.65-6.67-7-5-12.21ZM773.45,917.54c1.68-3.59,1.26-7.26.14-10.85-7.93-25.4-15.2-51.03-24.03-76.12-15.69-44.55-42.68-79.21-88.16-97.1-7.42-2.92-14.2-7.77-20.83-12.36-14.68-10.17-15.15-25.38-13.2-40.91,3.44-27.42,7.98-54.71,10.86-82.19,2.66-25.33,10.64-35.98,35.5-42.53,17.61-4.64,35.07-9.72,51.91-16.7,36.56-15.14,66.95-37.6,85.79-73.4,5.65-10.73,10.63-21.76,18.59-31.16,5.29-6.26,4.27-12.8-2.22-17.6-8.66-6.41-17.49-12.69-26.76-18.16-11.7-6.9-18.11-6.23-28.33,3.14-12.92,11.85-25.63,24.08-35.77,38.45-10.4,14.74-24.39,22.08-42,22.28-40.42.45-80.84-.3-121.25,1.56-21.89,1-43.85.12-65.78.31-32.73.29-61.64,23.69-69.72,55.61-13.97,55.14-21.13,111.22-23.64,167.95-1.14,25.68,5.67,36.55,29.21,47.48,60.22,27.94,120.34,56.08,180.67,83.77,13.24,6.08,22.66,14.9,28.83,28.19,10.52,22.66,24.5,43.43,36.9,65.07,6.05,10.55,14.7,15.05,26.88,13.66,15.74-1.8,31.55-3.03,47.32-4.6,3.36-.33,6.72-.95,9.11-3.8ZM490.49,342.09c0,49.41,37.85,87.6,86.85,87.61,48.85,0,87.63-38.64,87.54-87.23-.09-48.33-39.24-87.87-87.23-88.11-48.11-.24-87.15,39.06-87.15,87.73ZM492.81,812.08c-.93-3.74-2.27-5.24-4.15-6.16-18.14-8.9-36.22-17.93-54.49-26.57-6.49-3.07-11.2.14-13.71,6.28-8.52,20.82-24.17,35.35-41.81,48.25-10.88,7.95-22.53,14.89-32.29,24.3-8.35,8.05-8.99,13.49-2.76,23.2,6.04,9.41,13.83,17.42,21.44,25.53,10.11,10.77,16.12,11.77,29.54,5.06,18.07-9.04,35.88-18.57,54.91-25.58,10.48-3.86,18.39-11.19,23.83-20.94,9.61-17.2,12.47-36.77,19.49-53.36Z"/>
</svg>