<?xml version="1.0" encoding="UTF-8"?>
<svg id="Layer_1" data-name="Layer 1" xmlns="http://www.w3.org/2000/svg" viewBox="0 0 1024 1024">
  <defs>
    <style>
      .cls-1 {
        fill: #fff;
      }

      .cls-1, .cls-2 {
        stroke-width: 0px;
      }

      .cls-2 {
        fill: #488ac9;
      }
    </style>
  </defs>
  <rect class="cls-2" width="1024" height="1024" rx="95" ry="95"/>
  <path class="cls-1" d="M642.16,411.42c-1.52,5.91,2.53,8.23,5.15,11.22,19.23,21.98,38.97,43.46,57.67,65.95,19.69,23.68,17.86,57.19-3.23,79.48-20.38,21.54-46.6,22.19-67.05.69-19.83-20.85-38.99-42.42-58.3-63.82-43.27-47.97-86.46-96.02-129.63-144.1-2.49-2.78-5.84-4.94-6.65-8.88-.06-3.55,2.16-5.36,4-7.4,61.37-68.13,122.77-136.24,184.11-204.4,11.99-13.32,24.89-22.27,43.83-20.62,21.81,1.9,44.1,24.95,46.09,51.08,1.36,17.83-3.8,33.12-15.26,46.12-18.61,21.12-37.17,42.3-55.66,63.55-2.57,2.96-6.82,5.24-5.17,10.6,2.54,3.65,6.14,2.29,9.34,2.29,30.5.06,61,.2,91.5-.02,64.34-.47,116.99,27.04,160.09,76.77,55.99,64.59,81.45,141.95,77.96,229.07-5.76,144.04-106.8,250.98-208.36,271.58-11.98,2.43-23.71,3.73-35.68,3.74-146.81.08-293.62-.55-440.43.35-57.32.35-107.06-19.5-150.93-57.3-51.9-44.72-88.87-101.24-97.97-172.3-7.66-59.81-8.85-120.84,15.69-178.49,24.58-57.75,61.38-103.93,112.02-137.06,38.73-25.34,81.31-36.67,126.54-36.14,28.64.33,52.02,27.43,51.68,58.58-.34,30.53-23.96,57.28-52.12,56.96-86.69-.97-154.81,80.08-156.96,166.49-1.77,71.08,24.53,125.62,80.33,163.75,22.9,15.65,48.72,21.84,75.7,21.87,140.44.12,280.88.39,421.32-.07,83.45-.27,151.67-73.02,155.38-164.4,2.24-55.26-10.6-105.11-46.98-146.16-23.71-26.74-52.26-41.6-87.48-40.91-30.49.6-61,.09-91.5.11-2.94,0-6.07-.95-9.06,1.82Z"/>
</svg>