<?xml version="1.0" encoding="UTF-8"?>
<svg id="Layer_1" data-name="Layer 1" xmlns="http://www.w3.org/2000/svg" viewBox="0 0 1024 1024">
  <defs>
    <style>
      .cls-1 {
        fill: #fff;
      }

      .cls-1, .cls-2 {
        stroke-width: 0px;
      }

      .cls-2 {
        fill: #e32126;
      }
    </style>
  </defs>
  <rect class="cls-2" width="1024" height="1024" rx="95" ry="95"/>
  <g>
    <path class="cls-1" d="M513.24,70.52c119.34,0,238.68,0,358.01,0,7.25,0,14.5-.08,21.73.19,33.87,1.29,54.42,21.66,55.85,55.79.61,14.47.45,28.98.45,43.47-.03,128.71-.73,257.43.18,386.14.31,44.1-11.25,84.08-32.26,121.95-47.5,85.62-118.06,147.86-201.13,197.2-50.59,30.05-103.31,56.16-155.93,82.37-28.5,14.19-59.73,16.21-87.89,2.91-71.62-33.83-142.9-68.73-208.26-114.08-68.27-47.38-124.77-105.66-162.74-180.35-17.8-35.03-26.9-72.06-26.71-111.9.65-137.23.22-274.47.13-411.71,0-11.14,1-21.98,4.25-32.76,6.97-23.1,22.82-36.67,46.93-38.66,8.05-.67,16.18-.54,24.28-.54,121.04-.03,242.09-.02,363.13-.02ZM512.61,146.91c-115.02,0-230.05-.01-345.07.04-5.1,0-10.22.37-15.29.92-11.32,1.24-17.89,7.62-18.76,19-.75,9.76-1.04,19.57-1.15,29.36-.96,83.49,2.46,167.05-2.26,250.46-2.19,38.64.3,76.53,7.32,114.4,9.99,53.91,26.18,104.53,65.05,145.96,82.07,87.46,178.2,153.84,289.72,198,14.82,5.87,28.91,4.76,43.4-1.09,109.12-44.02,204.14-108.61,284.34-194.78,21.05-22.62,39.68-47.33,49.08-77.04,16.9-53.39,29.23-107.86,26.32-164.42-3.15-61.32-2.8-122.65-2.72-184,.05-34.51.13-69.02-.46-103.52-.48-27.86-5.67-32.61-33.17-33.25-.85-.02-1.7-.04-2.56-.04-114.6,0-229.2,0-343.8,0Z"/>
    <path class="cls-1" d="M328.81,352.48c5.87,5.68,12.67,6.49,19.54,6.5,109.53.05,219.06.03,328.59-.03,6.45,0,12.74-1.05,18.12-5.36,4.6-7.99,1.45-15.82-.94-23.4-8.48-26.81-17.44-53.46-25.93-80.26-8.41-26.58,2.03-40.44,29.83-40.1,24.3.3,40.13,10.17,47.19,33.54,13.12,43.46,19.33,88.27,18.47,133.67-.45,24.2-12.18,36.2-36.32,40.79-23.07,4.38-46.49,5.71-69.95,6.44-24.37.76-34.07,10.07-34.87,34.31-1.48,45.07-7.6,90.2.32,135.22,4.43,25.18,13.28,49.32,17.34,74.65,5.54,34.55,7.36,69.48,11.87,104.12,1.28,9.82-2.06,17.39-11.7,21.79-31.24,14.26-61.09-1.34-65.38-34.79-2.12-16.46-4.45-33.07-4.37-49.61.12-25.75-6.08-49.74-15.77-73.16-6.64-16.04-13.02-20.18-30.14-19.99-9.37.1-18.75.14-28.12-.13-11.55-.33-19.74,4.64-24.37,15.08-9.55,21.53-17.42,43.53-17.64,67.51-.2,22.21-2.11,44.27-5.73,66.17-4.92,29.76-46.08,45.08-69.66,26.01-5.88-4.76-7.49-11.2-6.68-18.37,6.19-54.54,8.84-109.59,25.73-162.53,7.31-22.92,7.83-47.04,7.18-70.96-.77-28.11-1.93-56.22-3.43-84.3-1.09-20.31-11.16-30.1-31.6-30.87-23.87-.9-47.72-2.05-71.26-6.27-26.64-4.77-38.23-17.42-38.3-44.41-.11-42.8,5.77-85.08,17.21-126.28,7.82-28.17,25.73-39.42,54.49-37.56,21.6,1.4,31.57,15.02,25.22,35.65-8.78,28.49-18.25,56.77-27.37,85.15-2.21,6.89-4.48,13.84-1.56,21.76Z"/>
    <path class="cls-1" d="M513.32,165.96c49.76.11,85.64,34.63,85.41,82.18-.23,48.1-36.29,81.76-87.38,81.57-49.7-.19-85.78-34.89-85.53-82.25.26-47.88,36.46-81.61,87.49-81.5Z"/>
  </g>
</svg>