<?xml version="1.0" encoding="UTF-8"?>
<svg id="Layer_1" data-name="Layer 1" xmlns="http://www.w3.org/2000/svg" viewBox="0 0 1024 1024">
  <defs>
    <style>
      .cls-1 {
        fill: #ef4c65;
      }

      .cls-1, .cls-2 {
        stroke-width: 0px;
      }

      .cls-2 {
        fill: #fff;
      }
    </style>
  </defs>
  <rect class="cls-1" width="1024" height="1024" rx="95" ry="95"/>
  <g>
    <path class="cls-2" d="M407.11,158.49c21.16-.08,41.13,1.06,60.59,6.56,38.84,10.99,68.59,34.39,91.73,66.92,27.64,38.85,41.87,82.91,50.44,129.18.79,4.28,1.46,8.59,2.14,12.61-7.57,13.51-16.18,18.79-27.81,17.29-15.03-1.94-23.57-9.36-26.79-24.67-4.57-21.76-9.29-43.45-17.91-64.05-11.42-27.29-26.92-51.72-50.81-69.91-15.96-12.15-33.93-19.02-55.25-19.94,9.84,27.59,20.68,53.64,26.23,81.09,19.36,95.65,40.36,191.18,36.55,289.74-1.13,29.23-4.68,58.11-17.39,85.06-32.09,68.06-108.73,79.61-159.55,24.05-24.52-26.8-37.74-59.41-47.82-93.54-25.11-85.04-33.75-172.22-30.84-260.46,1.68-51.09,18.7-96.94,55.95-133.85,12.38-12.26,26.81-21.14,42.37-28.55,3.86-1.84,8.36-2.77,11.17-6.43-25.5-59.76-100.53-84.79-161.31-53.88-32.76,16.66-53.69,44.02-68.95,76.44-19.29,41-25.78,85-27.86,129.52-6.07,130.4,19.23,255.79,63.15,377.9,8.02,22.3,19.39,43.16,32.4,63.05,14.48,22.13,32.78,39.69,57.21,50.78,17.18,7.8,21.37,32.76,8.01,46.21-7.7,7.75-17.31,6.38-26.6,2.82-27.27-10.47-49.35-28-67.11-50.89-33.55-43.22-55.01-92.56-70.53-144.5-31.75-106.24-53.47-214.1-49.78-325.82,1.86-56.37,7.32-112.11,30.92-164.26,25.13-55.55,61.99-100.25,122.38-118.77,65.82-20.19,124.55-7.27,172.79,44.03,16.03,17.05,29.7,35.91,42.25,56.26ZM378.75,220.17c-8.15-2.41-14.08.5-19.92,3.55-24.91,12.98-42.62,32.46-53.08,58.59-9.64,24.09-11.7,49.5-12.91,74.97-3.3,69.02,8.17,136.37,22.93,203.42,7.69,34.93,18.71,68.22,41.86,96.11,25.36,30.56,61.21,24.34,74.79-12.77,11.83-32.33,15.12-65.9,12.46-100.05-5.26-67.57-14.57-134.6-27.72-201.1-8.35-42.24-20.31-83.32-38.41-122.73Z"/>
    <path class="cls-2" d="M985.63,723.37c-7.52,9.31-18.7,11.63-29.69,14.07-25.94,5.76-52.21,9.98-77.81,17.29-21.17,6.05-41.05,14.79-59.48,26.9-27.1,17.8-55.01,34.37-80.28,54.88-13.24,10.75-23.64,23.33-30.89,38.99-12.39,26.76-25.65,53.12-38.76,79.54-9.46,19.05-19.06,23.79-32.87,16.79-14.49-7.34-20.73-25.92-12.64-41.47,12.94-24.87,26.88-49.23,40.27-73.87,10.62-19.54,14.92-40.13,9.82-62.22-3.03-13.1-9.17-24.54-18.28-34.32-48.44-51.94-69.72-115.03-75.87-184.35-1.77-19.98-2.67-40.01-2.23-60.08.33-15.44,7.09-22.66,21.53-23.08,16.97-.5,25.7,6.29,26.82,21.83,2.79,38.6,7.81,76.73,19.1,113.96,6.08,20.06,31.93,36.99,52.37,28.12,4.96-18.21,3.67-36.94-.72-55.49-6.47-27.36-15.71-53.79-28.42-78.95-2.3-4.55-4.69-9.07-6.65-13.77-6.55-15.74-5.93-30.79,6.11-43.76,11.57-12.48,26.02-10.58,40.9-7.27,9.32,17.89,13.26,37.18,17.79,56.23,7,29.46,16.29,58.19,26.93,86.48,9.72,25.83,23.68,49.18,42.52,69.5,12.14,13.09,24.21,26.23,36.39,39.42,27.65.51,54.59-4.43,81.69-7.57,15.54-1.8,31.07-4.64,46.81-3.48,15.23,1.13,26.01,12.06,25.55,25.69Z"/>
    <path class="cls-2" d="M816.35,925.76c-31.81.12-56.28-24.08-56.27-55.66.01-30.94,24.18-55.33,55.3-55.81,31.35-.49,56.67,24.14,56.96,55.38.29,31.41-24.23,55.96-55.99,56.08Z"/>
  </g>
</svg>